<svg xmlns="http://www.w3.org/2000/svg" version="1.1" xmlns:xlink="http://www.w3.org/1999/xlink" xmlns:svgjs="http://svgjs.dev/svgjs" width="128" height="128" viewBox="0 0 128 128"><g transform="matrix(0.8046875,0,0,0.8046875,12.482823073110197,5.555233470394732)"><svg viewBox="0 0 83 95" data-background-color="#000000" preserveAspectRatio="xMidYMid meet" height="146" width="128" xmlns="http://www.w3.org/2000/svg" xmlns:xlink="http://www.w3.org/1999/xlink"><g id="tight-bounds" transform="matrix(1,0,0,1,0.013841601280134341,-0.24049999999999727)"><svg viewBox="0 0 82.97231679743973 95.481" height="95.481" width="82.97231679743973"><g><svg viewBox="0 0 82.97231679743973 95.481" height="95.481" width="82.97231679743973"><g><svg viewBox="0 0 82.97231679743973 95.481" height="95.481" width="82.97231679743973"><g><svg viewBox="0 0 82.97231679743973 95.481" height="95.481" width="82.97231679743973"><g id="textblocktransform"><svg viewBox="0 0 82.97231679743973 95.481" height="95.481" width="82.97231679743973" id="textblock"><g><svg viewBox="0 0 82.97231679743973 95.481" height="95.481" width="82.97231679743973"><g transform="matrix(1,0,0,1,0,0)"><svg width="82.97231679743973" viewBox="-1 -33.3 32.545454542521995 37.3" height="95.481" data-palette-color="#00cb9a"><g class="wordmark-text-0" data-fill-palette-color="primary" id="text-0"><path d="M28.5-15.95L28.5-15.95Q28.6-15.6 28.45-15.25 28.3-14.9 28.4-14.5L28.4-14.5Q28.4-14.3 28.3-14.1L28.3-14.1Q28.3-14 28.25-13.93 28.2-13.85 28.2-13.8L28.2-13.8Q28.25-13 28.23-12.73 28.2-12.45 27.95-11.65L27.95-11.65Q28-11.45 28.03-11.18 28.05-10.9 28.1-10.6L28.1-10.6Q28.05-10.25 27.85-9.7L27.85-9.7Q27.7-9.8 27.58-9.85 27.45-9.9 27.35-9.95L27.35-9.95Q27.05-10.05 27.05-9.7L27.05-9.7Q27.05-9.35 27.18-9.08 27.3-8.8 27.5-8.55L27.5-8.55Q27.4-8.15 27.33-7.7 27.25-7.25 27.15-6.75L27.15-6.75Q26.9-6.3 26.6-5.83 26.3-5.35 25.8-5.1L25.8-5.1Q25.75-4.85 25.7-4.67 25.65-4.5 25.55-4.25L25.55-4.25Q25.1-3.9 24.65-3.53 24.2-3.15 23.9-2.75L23.9-2.75Q23.65-2.55 23.45-2.6 23.25-2.65 23.05-2.6L23.05-2.6Q22.7-2.35 22.38-2.1 22.05-1.85 21.7-1.6L21.7-1.6Q21.35-1.4 21.05-1.15 20.75-0.9 20.4-0.65L20.4-0.65 19.65-0.65Q19.4-0.45 19.2-0.33 19-0.2 18.75-0.05L18.75-0.05Q18.6-0.05 18.53-0.03 18.45 0 18.35-0.05L18.35-0.05Q17.85-0.1 17.65-0.03 17.45 0.05 16.85 0.3L16.85 0.3Q16.4 0.45 15.95 0.63 15.5 0.8 15.05 1L15.05 1Q14.5 0.75 13.93 0.75 13.35 0.75 12.75 0.75L12.75 0.75Q12.45 0.55 12.15 0.4L12.15 0.4Q11.95 0.3 11.83 0.25 11.7 0.2 11.5 0.15L11.5 0.15Q11.4 0.15 11.23 0.15 11.05 0.15 10.85 0.25L10.85 0.25Q10.75 0.3 10.6 0.4 10.45 0.5 10.35 0.65L10.35 0.65Q9.4 0.5 8.4 0.38 7.4 0.25 6.4 0.05L6.4 0.05Q6-0.05 5.63-0.18 5.25-0.3 4.85-0.4L4.85-0.4Q4.55-0.35 4.25-0.3 3.95-0.25 3.6-0.15L3.6-0.15Q2.8-0.05 2.45-0.85L2.45-0.85Q2.45-0.95 2.43-1.05 2.4-1.15 2.4-1.2L2.4-1.2Q2.5-1.75 2.6-2.25 2.7-2.75 2.75-3.2L2.75-3.2Q2.75-3.3 2.95-3.5L2.95-3.5 2.95-3.7Q2.75-3.85 2.58-4 2.4-4.15 2.25-4.3L2.25-4.3 2.2-8.8 2.2-8.85 2.55-8.85Q2.5-8.95 2.4-9.03 2.3-9.1 2.2-9.15L2.2-9.15Q2.2-9.15 2.35-9.6 2.5-10.05 2.55-10.25L2.55-10.25Q2.65-10.55 2.53-10.75 2.4-10.95 2.35-11.15L2.35-11.15Q2.45-11.35 2.55-11.53 2.65-11.7 2.7-11.9L2.7-11.9Q2.65-12.15 2.55-12.35 2.45-12.55 2.35-12.75L2.35-12.75Q2.3-13 2.38-13.28 2.45-13.55 2.45-13.75L2.45-13.75Q2.55-14 2.5-14.25 2.45-14.5 2.45-14.85L2.45-14.85Q2.3-15.4 2-16.05L2-16.05Q2.15-16.35 2.25-16.65 2.35-16.95 2.45-17.25L2.45-17.25 2.3-17.95Q2.4-18.35 2.53-18.78 2.65-19.2 2.7-19.55L2.7-19.55Q2.5-20.3 2.53-21.03 2.55-21.75 2.55-22.5L2.55-22.5Q2.55-22.9 2.8-23.4L2.8-23.4Q2.9-23.5 2.93-23.63 2.95-23.75 3-23.8L3-23.8Q2.75-24.3 2.7-24.55L2.7-24.55Q2.7-24.85 2.8-25.18 2.9-25.5 2.65-25.75L2.65-25.75Q2.5-26.3 2.55-26.78 2.6-27.25 2.7-27.75L2.7-27.75Q2.95-28 3.13-28.28 3.3-28.55 3.5-28.85L3.5-28.85Q3.75-28.9 4.03-28.98 4.3-29.05 4.5-29L4.5-29Q5.3-28.85 6.2-29.25L6.2-29.25Q6.45-29.4 6.73-29.35 7-29.3 7.3-29.2L7.3-29.2Q8.25-29.35 9.2-29.5 10.15-29.65 11.05-29.9L11.05-29.9Q11.3-30 11.55-29.95 11.8-29.9 12.15-29.9L12.15-29.9 13.05-30.3Q13.3-30.25 13.55-30.18 13.8-30.1 14.05-30L14.05-30Q14.35-30.05 14.65-30.15 14.95-30.25 15.3-30.3L15.3-30.3Q15.5-30.2 15.7-30.05 15.9-29.9 16.1-29.8L16.1-29.8Q16.65-29.85 17.13-30 17.6-30.15 18.1-30.2L18.1-30.2Q18.3-30 18.4-29.78 18.5-29.55 18.7-29.4L18.7-29.4Q18.9-29.15 19.28-29.18 19.65-29.2 19.8-29.5L19.8-29.5Q19.9-29.75 20.13-29.7 20.35-29.65 20.6-29.25L20.6-29.25Q20.9-29.25 21.2-29.3 21.5-29.35 21.85-29.35L21.85-29.35Q22.1-29.2 22.28-29.08 22.45-28.95 22.65-28.75L22.65-28.75Q22.85-28.55 23.05-28.38 23.25-28.2 23.5-28.05L23.5-28.05Q23.8-27.9 23.9-27.6L23.9-27.6Q24.1-27.3 24.38-27.03 24.65-26.75 24.9-26.5L24.9-26.5Q25.3-26.05 26.1-25.8L26.1-25.8Q26.2-25.75 26.33-25.7 26.45-25.65 26.5-25.6L26.5-25.6Q26.6-25.2 26.73-24.83 26.85-24.45 26.9-24.05L26.9-24.05Q26.85-23.6 26.75-23.3L26.75-23.3Q26.85-22.85 27.15-22.58 27.45-22.3 27.7-22L27.7-22Q28.4-20.9 28.4-19.45L28.4-19.45Q28.4-18.95 28.45-18.48 28.5-18 28.4-17.55L28.4-17.55Q28.35-17.15 28.48-16.75 28.6-16.35 28.5-15.95ZM21.1-16.9L21.1-16.9Q21-17.15 20.83-17.43 20.65-17.7 20.55-18L20.55-18Q20.4-18.3 20.3-18.63 20.2-18.95 20.1-19.3L20.1-19.3Q19.3-19.4 18.73-19.8 18.15-20.2 17.6-20.6L17.6-20.6 16.85-20.6Q16.35-21 15.9-21.33 15.45-21.65 14.95-22L14.95-22Q14.1-22.1 13.28-22.03 12.45-21.95 11.75-22.1L11.75-22.1Q11.3-21.95 10.98-21.88 10.65-21.8 10.35-21.7L10.35-21.7Q10.05-21.5 9.95-21.4L9.95-21.4Q9.8-20.65 9.85-19.9 9.9-19.15 9.95-18.4L9.95-18.4Q10.15-18.1 10.03-17.82 9.9-17.55 9.95-17.3L9.95-17.3Q10-17.15 10.03-17 10.05-16.85 10.1-16.6L10.1-16.6Q10-16.3 9.98-15.98 9.95-15.65 9.9-15.25L9.9-15.25Q9.9-14.45 9.75-13.75L9.75-13.75Q9.9-13.5 10-13.28 10.1-13.05 10.2-12.8L10.2-12.8Q10.05-12.35 9.88-11.88 9.7-11.4 9.6-11L9.6-11Q9.6-10.75 9.63-10.5 9.65-10.25 9.6-10L9.6-10Q9.55-9.4 9.3-8.8L9.3-8.8 9.5-8.45Q9.8-7.7 10.7-7.9L10.7-7.9Q11.25-7.9 11.6-8.05L11.6-8.05Q11.95-8.15 12.28-8.08 12.6-8 12.95-8.05L12.95-8.05Q13.35-8.15 13.83-8.33 14.3-8.5 14.7-8.65L14.7-8.65Q14.95-8.7 15.15-8.75 15.35-8.8 15.55-8.75L15.55-8.75Q16-8.7 16.5-8.75 17-8.8 17.5-8.85L17.5-8.85Q17.6-8.95 17.8-9.03 18-9.1 18.15-9.2L18.15-9.2Q18.9-9.55 19.45-10.35L19.45-10.35Q19.7-10.7 19.88-11.13 20.05-11.55 20.25-11.9L20.25-11.9Q20.65-12.75 20.85-13.58 21.05-14.4 20.95-15.3L20.95-15.3Q20.9-15.5 20.93-15.7 20.95-15.9 21-16.1L21-16.1Q21.05-16.3 21.1-16.5 21.15-16.7 21.1-16.9Z" fill="#00cb9a" data-fill-palette-color="primary"></path></g></svg></g></svg></g></svg></g></svg></g><g></g></svg></g></svg></g><defs></defs></svg><rect width="82.97231679743973" height="95.481" fill="none" stroke="none" visibility="hidden"></rect></g></svg></g></svg>